HIERARCHY
ROOT Hips
{
	OFFSET 0.00 0.00 0.00
	CHANNELS 6 Xposition Yposition Zposition Xrotation Yrotation Zrotation
	JOINT Spine
	{
		OFFSET 0.00000 7.06766 0.00000
		CHANNELS 3 Xrotation Yrotation Zrotation
		JOINT Head
		{
			OFFSET 0.00000 15.03989 0.00000
			CHANNELS 3 Xrotation Yrotation Zrotation
			End Site
			{
				OFFSET 0.00000 4.52755 0.00000
			}
		}
		JOINT LeftShoulder
		{
			OFFSET 0.00000 10.53037 0.00000
			CHANNELS 3 Xrotation Yrotation Zrotation
			JOINT LeftArm
			{
				OFFSET 7.02886 0.00000 0.00000
				CHANNELS 3 Xrotation Yrotation Zrotation
				JOINT LeftForeArm
				{
					OFFSET 10.79770 0.00000 0.00000
					CHANNELS 3 Yrotation Zrotation Xrotation
					JOINT LeftHand
					{
						OFFSET 7.90744 0.00000 0.00000
						CHANNELS 3 Xrotation Yrotation Zrotation
						JOINT LeftHandThumb1
						{
							OFFSET 0.00000 0.00000 0.00000
							CHANNELS 3 Xrotation Zrotation Yrotation
							End Site
							{
								OFFSET 0.00000 0.00000 3.93700
							}
						}
						End Site
						{
							OFFSET 3.93700 0.00000 0.00000
						}
					}
				}
			}
		}
		JOINT RightShoulder
		{
			OFFSET 0.00000 10.53037 0.00000
			CHANNELS 3 Xrotation Yrotation Zrotation
			JOINT RightArm
			{
				OFFSET -7.02886 0.00000 0.00000
				CHANNELS 3 Xrotation Yrotation Zrotation
				JOINT RightForeArm
				{
					OFFSET -10.79770 0.00000 0.00000
					CHANNELS 3 Yrotation Zrotation Xrotation
					JOINT RightHand
					{
						OFFSET -7.90744 0.00000 0.00000
						CHANNELS 3 Xrotation Yrotation Zrotation
						JOINT RightHandThumb1
						{
							OFFSET 0.00000 0.00000 0.00000
							CHANNELS 3 Xrotation Zrotation Yrotation
							End Site
							{
								OFFSET 0.00000 0.00000 3.93700
							}
						}
						End Site
						{
							OFFSET -3.93700 0.00000 0.00000
						}
					}
				}
			}
		}
	}
	JOINT LeftUpLeg
	{
		OFFSET 4.01300 0.00000 0.00000
		CHANNELS 3 Xrotation Yrotation Zrotation
		JOINT LeftLeg
		{
			OFFSET 0.00000 -16.89976 0.00000
			CHANNELS 3 Xrotation Yrotation Zrotation
			JOINT LeftFoot
			{
				OFFSET 0.00000 -17.38918 0.00000
				CHANNELS 3 Xrotation Yrotation Zrotation
				JOINT LeftToeBase
				{
					OFFSET 0.00000 -1.27456 4.75673
					CHANNELS 3 Xrotation Yrotation Zrotation
					End Site
					{
						OFFSET 0.00000 0.00000 2.95275
					}
				}
			}
		}
	}
	JOINT RightUpLeg
	{
		OFFSET -4.01300 0.00000 0.00000
		CHANNELS 3 Xrotation Yrotation Zrotation
		JOINT RightLeg
		{
			OFFSET 0.00000 -16.89976 0.00000
			CHANNELS 3 Xrotation Yrotation Zrotation
			JOINT RightFoot
			{
				OFFSET 0.00000 -17.38918 0.00000
				CHANNELS 3 Xrotation Yrotation Zrotation
				JOINT RightToeBase
				{
					OFFSET 0.00000 -1.27456 4.75673
					CHANNELS 3 Xrotation Yrotation Zrotation
					End Site
					{
						OFFSET 0.00000 0.00000 2.95275
					}
				}
			}
		}
	}
}
MOTION
Frames: 19
Frame Time: 0.008333
 19.8658 35.3728 -23.0149 175.0080 -0.4569 179.4690 -15.1574 0.9067 -0.1471 5.8227 -0.3810 0.6960 -33.8068 4.5882 15.7738 2.0294 -4.6281 -7.9996 2.0664 0.0000 7.2417 0.6687 7.1860 -5.3304 33.1476 -0.0000 26.2537 6.7241 -14.2244 -7.3247 -40.8688 -0.0879 12.1960 5.7391 -0.0000 35.6743 0.9108 -8.9231 5.8519 32.8623 0.0000 -24.3270 5.0747 9.5321 0.1619 -6.5801 0.0000 0.0000 -20.0181 28.4254 5.4477 26.4025 -0.0000 0.0000 4.2059 -10.8237 0.2634 -3.5538 0.0000 -0.0000 -20.4457 -28.3605 -4.2222 25.5447 -0.0000 -0.0000
 19.8636 35.3733 -23.0125 175.0071 -0.4680 179.4692 -15.1431 0.9136 -0.1351 5.8192 -0.3667 0.7027 -33.8036 4.5677 15.7770 2.0418 -4.6246 -8.0010 2.0583 0.0000 7.2088 0.6642 7.1789 -5.2997 33.1476 -0.0000 26.2537 6.7041 -14.2150 -7.3312 -40.8306 -0.0836 12.1763 5.7267 -0.0000 35.6887 0.9135 -8.9545 5.8493 32.8623 0.0000 -24.3270 5.0681 9.5185 0.1585 -6.5774 0.0000 0.0000 -20.0155 28.4314 5.4457 26.4042 0.0000 -0.0000 4.2006 -10.8418 0.2605 -3.5529 0.0000 -0.0000 -20.4486 -28.3564 -4.2395 25.5824 -0.0000 0.0000
 19.8617 35.3733 -23.0104 175.0074 -0.4848 179.4756 -15.1240 0.9280 -0.1379 5.8117 -0.3687 0.7057 -33.7939 4.5342 15.7857 2.0248 -4.6171 -8.0117 2.0625 0.0000 7.2013 0.6653 7.1664 -5.3177 33.1476 -0.0000 26.2537 6.6920 -14.2273 -7.3265 -40.8172 -0.0705 12.1627 5.7092 -0.0000 35.6891 0.9127 -8.9494 5.8473 32.8623 0.0000 -24.3270 5.0641 9.5106 0.1499 -6.5759 -0.0000 -0.0000 -20.0082 28.4156 5.4394 26.4313 0.0000 -0.0000 4.1983 -10.8449 0.2528 -3.5533 -0.0000 -0.0000 -20.4489 -28.3636 -4.2255 25.6131 0.0000 -0.0000
 19.8585 35.3737 -23.0077 175.0070 -0.4888 179.4755 -15.1064 0.9333 -0.1170 5.8046 -0.3287 0.7090 -33.7984 4.5172 15.7882 2.0077 -4.5966 -8.0115 2.0537 0.0000 7.2583 0.6702 7.1512 -5.3679 33.1476 -0.0000 26.2537 6.6923 -14.2219 -7.3301 -40.8181 -0.0594 12.1458 5.6952 -0.0000 35.6821 0.9107 -8.9717 5.8203 32.8623 0.0000 -24.3270 5.0585 9.5177 0.1429 -6.5782 -0.0000 -0.0000 -20.0081 28.4256 5.4381 26.4370 0.0000 -0.0000 4.1949 -10.8302 0.2472 -3.5561 0.0000 0.0000 -20.4431 -28.3857 -4.2276 25.5666 -0.0000 0.0000
 19.8560 35.3744 -23.0048 175.0072 -0.4948 179.4737 -15.0889 0.9459 -0.0985 5.8025 -0.3075 0.7107 -33.7842 4.5056 15.7867 1.9861 -4.6101 -8.0135 2.0652 0.0000 7.2639 0.6709 7.1933 -5.3426 33.1476 -0.0000 26.2537 6.7192 -14.2331 -7.3187 -40.8601 -0.0445 12.1293 5.6887 -0.0000 35.6877 0.9118 -8.9888 5.8165 32.8623 0.0000 -24.3270 5.0543 9.5045 0.1420 -6.5774 0.0000 0.0000 -20.0073 28.4320 5.4344 26.4275 -0.0000 0.0000 4.1840 -10.8332 0.2437 -3.5439 -0.0000 -0.0000 -20.4327 -28.4014 -4.2077 25.5543 0.0000 -0.0000
 19.8537 35.3746 -23.0020 175.0053 -0.5098 179.4793 -15.0746 0.9452 -0.0959 5.8083 -0.3052 0.7130 -33.7666 4.4998 15.8015 1.9792 -4.6271 -8.0241 2.0708 0.0000 7.2554 0.6714 7.2286 -5.3210 33.1476 -0.0000 26.2537 6.6885 -14.2163 -7.3245 -40.8433 -0.0572 12.1100 5.6946 -0.0000 35.6910 0.9103 -8.9918 5.8049 32.8623 0.0000 -24.3270 5.0440 9.5088 0.1287 -6.5792 -0.0000 -0.0000 -20.0005 28.4400 5.4590 26.4084 -0.0000 -0.0000 4.1781 -10.8507 0.2359 -3.5446 0.0000 0.0000 -20.4390 -28.3907 -4.2341 25.5857 -0.0000 0.0000
 19.8513 35.3754 -22.9989 175.0043 -0.5177 179.4760 -15.0565 0.9591 -0.0740 5.8026 -0.2909 0.7118 -33.7518 4.5026 15.8013 1.9689 -4.6554 -8.0342 2.0760 0.0000 7.2049 0.6794 7.1931 -5.4103 33.1476 -0.0000 26.2537 6.6298 -14.2090 -7.3462 -40.8089 -0.0814 12.0954 5.7185 -0.0000 35.6991 0.9101 -8.9973 5.8001 32.8623 0.0000 -24.3270 5.0392 9.5242 0.1262 -6.5878 0.0000 -0.0000 -19.9894 28.4338 5.4582 26.4448 0.0000 -0.0000 4.1679 -10.8529 0.2347 -3.5340 0.0000 0.0000 -20.4324 -28.4062 -4.2093 25.5627 -0.0000 -0.0000
 19.8493 35.3756 -22.9960 175.0024 -0.5302 179.4807 -15.0417 0.9574 -0.0733 5.8072 -0.2703 0.7311 -33.7786 4.4819 15.8208 2.0125 -4.6586 -8.0376 2.0776 0.0000 7.2635 0.6724 7.1952 -5.3534 33.1476 -0.0000 26.2537 6.6310 -14.2060 -7.3369 -40.8326 -0.0783 12.0857 5.7260 -0.0000 35.6880 0.9106 -9.0316 5.7818 32.8623 0.0000 -24.3270 5.0358 9.5083 0.1197 -6.5927 -0.0000 -0.0000 -19.9796 28.4372 5.4500 26.4319 0.0000 -0.0000 4.1614 -10.8687 0.2287 -3.5347 0.0000 0.0000 -20.4436 -28.3969 -4.2371 25.6407 0.0000 0.0000
 19.8481 35.3764 -22.9931 175.0066 -0.5418 179.4772 -15.0208 0.9536 -0.0585 5.8233 -0.2482 0.7423 -33.7651 4.4786 15.8193 2.0201 -4.6704 -8.0294 2.0789 0.0000 7.2500 0.6735 7.2018 -5.3567 33.1476 -0.0000 26.2537 6.6104 -14.1876 -7.3418 -40.8437 -0.0958 12.0709 5.7327 -0.0000 35.7140 0.9091 -9.0326 5.7713 32.8623 0.0000 -24.3270 5.0306 9.5141 0.1277 -6.5810 0.0000 0.0000 -19.9723 28.3856 5.4187 26.4164 -0.0000 0.0000 4.1597 -10.8666 0.2305 -3.5309 -0.0000 -0.0000 -20.4212 -28.4195 -4.2234 25.5611 0.0000 -0.0000
 19.8466 35.3771 -22.9901 175.0055 -0.5487 179.4776 -15.0062 0.9584 -0.0492 5.8323 -0.2455 0.7610 -33.7581 4.4748 15.8338 1.9743 -4.6711 -8.0451 2.0618 0.0000 7.2933 0.6721 7.2227 -5.3308 33.1476 -0.0000 26.2537 6.6116 -14.1890 -7.3458 -40.8430 -0.0891 12.0860 5.7390 -0.0000 35.6726 0.9094 -9.1446 5.7040 32.8623 0.0000 -24.3270 5.0276 9.5218 0.1242 -6.5860 -0.0000 -0.0000 -19.9471 28.3754 5.3922 26.3739 0.0000 -0.0000 4.1478 -10.8769 0.2267 -3.5176 0.0000 0.0000 -20.4264 -28.4222 -4.2217 25.5716 0.0000 0.0000
 19.8439 35.3773 -22.9868 175.0003 -0.5535 179.4837 -14.9966 0.9751 -0.0414 5.8511 -0.2465 0.7735 -33.7263 4.4868 15.8417 1.9751 -4.7174 -8.0639 2.0569 0.0000 7.1918 0.6780 7.2025 -5.3917 33.1476 -0.0000 26.2537 6.6078 -14.1992 -7.3547 -40.8153 -0.0828 12.0985 5.7485 -0.0000 35.6366 0.9078 -9.1644 5.6819 32.8623 0.0000 -24.3270 5.0184 9.5339 0.1073 -6.5977 0.0000 -0.0000 -19.9380 28.4004 5.4218 26.3790 -0.0000 -0.0000 4.1312 -10.9027 0.2172 -3.5094 0.0000 -0.0000 -20.4250 -28.4019 -4.2206 25.5512 -0.0000 0.0000
 19.8427 35.3781 -22.9825 174.9909 -0.5566 179.4852 -14.9911 0.9789 -0.0274 5.8807 -0.2353 0.7705 -33.7223 4.4979 15.8356 1.9343 -4.7253 -8.0437 2.0363 0.0000 7.3137 0.6830 7.1562 -5.4662 33.1476 -0.0000 26.2537 6.5991 -14.1954 -7.3539 -40.8110 -0.0698 12.0917 5.7483 -0.0000 35.6385 0.9109 -9.2083 5.6739 32.8623 0.0000 -24.3270 4.9973 9.5439 0.1034 -6.5900 -0.0000 -0.0000 -19.9375 28.3876 5.4283 26.4191 -0.0000 0.0000 4.1057 -10.9146 0.2126 -3.4965 -0.0000 -0.0000 -20.4217 -28.3764 -4.2073 25.8039 0.0000 0.0000
 19.8414 35.3795 -22.9776 174.9787 -0.5433 179.4810 -14.9949 1.0089 -0.0021 5.9301 -0.2415 0.7683 -33.7150 4.4954 15.8208 1.9599 -4.7416 -8.0365 2.0100 0.0000 7.3093 0.6799 7.1712 -5.4304 33.1476 -0.0000 26.2537 6.6181 -14.1921 -7.3356 -40.8121 -0.0527 12.0658 5.7341 -0.0000 35.6167 0.9084 -9.1996 5.6638 32.8623 0.0000 -24.3270 4.9766 9.5553 0.1051 -6.5890 0.0000 0.0000 -19.9234 28.3938 5.4239 26.4020 0.0000 -0.0000 4.0679 -10.8762 0.2084 -3.4621 0.0000 0.0000 -20.4228 -28.4112 -4.2135 25.5597 0.0000 -0.0000
 19.8396 35.3804 -22.9726 174.9660 -0.5366 179.4790 -14.9957 1.0186 0.0265 5.9777 -0.2434 0.7472 -33.7279 4.4937 15.8049 1.9872 -4.7469 -8.0281 2.0120 0.0000 7.2973 0.6663 7.1249 -5.3563 33.1476 -0.0000 26.2537 6.6075 -14.1721 -7.3500 -40.7964 -0.0602 12.0579 5.7275 -0.0000 35.6348 0.9031 -9.1911 5.6361 32.8623 0.0000 -24.3270 4.9524 9.5688 0.1079 -6.5748 0.0000 0.0000 -19.9182 28.3637 5.3992 26.4235 -0.0000 -0.0000 4.0385 -10.8824 0.2083 -3.4514 0.0000 0.0000 -20.4224 -28.4137 -4.2041 25.5782 -0.0000 -0.0000
 19.8378 35.3815 -22.9682 174.9612 -0.5398 179.4841 -14.9875 1.0228 0.0400 6.0257 -0.2420 0.7378 -33.7210 4.5012 15.7881 2.0124 -4.7586 -8.0186 1.9924 0.0000 7.3530 0.6530 7.1988 -5.1968 33.1476 -0.0000 26.2537 6.6027 -14.1780 -7.3402 -40.8085 -0.0260 12.0579 5.7142 -0.0000 35.6510 0.9006 -9.1776 5.6290 32.8623 0.0000 -24.3270 4.9380 9.5759 0.0960 -6.5795 0.0000 -0.0000 -19.9052 28.3937 5.4141 26.4782 -0.0000 0.0000 4.0184 -10.8962 0.1998 -3.4387 -0.0000 -0.0000 -20.4240 -28.4130 -4.2118 25.6004 -0.0000 -0.0000
 19.8363 35.3826 -22.9635 174.9527 -0.5442 179.4904 -14.9853 1.0284 0.0535 6.0859 -0.2388 0.7148 -33.6916 4.5115 15.7708 2.0135 -4.7537 -8.0104 1.9397 0.0000 7.3451 0.6560 7.2146 -5.2094 33.1476 -0.0000 26.2537 6.6026 -14.1644 -7.3357 -40.7983 -0.0327 12.0359 5.7256 -0.0000 35.6950 0.8932 -9.0602 5.6541 32.8623 0.0000 -24.3270 4.9168 9.5809 0.0876 -6.5707 0.0000 -0.0000 -19.8853 28.3950 5.4077 26.4177 -0.0000 -0.0000 4.0004 -10.9005 0.1920 -3.4405 0.0000 0.0000 -20.3969 -28.3847 -4.1968 25.7712 0.0000 -0.0000
 19.8374 35.3839 -22.9583 174.9422 -0.5458 179.4823 -14.9792 1.0255 0.0755 6.1338 -0.2394 0.6942 -33.6777 4.5306 15.7719 2.1020 -4.7787 -8.0234 1.8917 0.0000 7.2250 0.6611 7.2378 -5.2331 33.1476 -0.0000 26.2537 6.6087 -14.1618 -7.3212 -40.8244 -0.0271 12.0382 5.7676 -0.0000 35.6863 0.9010 -9.0776 5.6922 32.8623 0.0000 -24.3270 4.8571 9.6843 0.0979 -6.5025 -0.0000 0.0000 -19.9033 28.3068 5.4064 26.4301 -0.0000 0.0000 3.9782 -10.8801 0.1991 -3.4282 0.0000 -0.0000 -20.3952 -28.4316 -4.1988 25.5865 -0.0000 0.0000
 19.8358 35.3853 -22.9517 174.9381 -0.5382 179.4953 -14.9593 1.0461 0.0812 6.1723 -0.2317 0.6798 -33.6769 4.5272 15.7509 2.1958 -4.7735 -8.0156 1.8469 0.0000 7.1481 0.6607 7.2346 -5.2320 33.1476 -0.0000 26.2537 6.6119 -14.1477 -7.3063 -40.8492 -0.0597 12.0212 5.8147 -0.0000 35.7431 0.8958 -8.9873 5.7155 32.8623 0.0000 -24.3270 4.8573 9.6313 0.0839 -6.5243 0.0000 -0.0000 -19.8766 28.3755 5.4028 26.4196 -0.0000 0.0000 3.9507 -10.8783 0.1823 -3.4135 0.0000 0.0000 -20.3935 -28.4278 -4.2344 25.5690 -0.0000 0.0000
 19.8354 35.3870 -22.9444 174.9257 -0.5342 179.4987 -14.9467 1.0635 0.0952 6.2040 -0.2598 0.6605 -33.6678 4.5401 15.7331 2.2080 -4.7886 -8.0285 1.8312 0.0000 7.1474 0.6544 7.2366 -5.1811 33.1476 -0.0000 26.2537 6.5974 -14.1446 -7.2866 -40.7963 -0.0459 12.0213 5.8431 -0.0000 35.6774 0.8914 -9.0742 5.6343 32.8623 0.0000 -24.3270 4.8304 9.6184 0.0829 -6.5165 0.0000 -0.0000 -19.8574 28.3944 5.3837 26.4081 0.0000 0.0000 3.9125 -10.8655 0.1750 -3.3882 -0.0000 -0.0000 -20.3905 -28.4290 -4.2294 25.5484 0.0000 0.0000
